<?xml version="1.0" encoding="UTF-8" standalone="no"?>
<svg
   xmlns:dc="http://purl.org/dc/elements/1.1/"
   xmlns:cc="http://creativecommons.org/ns#"
   xmlns:rdf="http://www.w3.org/1999/02/22-rdf-syntax-ns#"
   xmlns:svg="http://www.w3.org/2000/svg"
   xmlns="http://www.w3.org/2000/svg"
   xmlns:sodipodi="http://sodipodi.sourceforge.net/DTD/sodipodi-0.dtd"
   xmlns:inkscape="http://www.inkscape.org/namespaces/inkscape"
   viewBox="0 0 2008.3488 116.72425"
   version="1.1"
   xml:space="preserve"
   id="svg2"
   inkscape:version="0.91 r13725"
   sodipodi:docname="уsvg.svg"
   width="2008.3488"
   height="116.72425"
   style="fill-rule:evenodd;stroke-linecap:round;stroke-linejoin:round"><metadata
     id="metadata426"><rdf:RDF><cc:Work
         rdf:about=""><dc:format>image/svg+xml</dc:format><dc:type
           rdf:resource="http://purl.org/dc/dcmitype/StillImage" /><dc:title></dc:title></cc:Work></rdf:RDF></metadata><sodipodi:namedview
     pagecolor="#ffffff"
     bordercolor="#666666"
     borderopacity="1"
     objecttolerance="10"
     gridtolerance="10"
     guidetolerance="10"
     inkscape:pageopacity="0"
     inkscape:pageshadow="2"
     inkscape:window-width="1391"
     inkscape:window-height="855"
     id="namedview424"
     showgrid="false"
     inkscape:snap-global="true"
     inkscape:zoom="2.078702"
     inkscape:cx="65.125589"
     inkscape:cy="71.001824"
     inkscape:window-x="49"
     inkscape:window-y="1"
     inkscape:window-maximized="1"
     inkscape:current-layer="svg2"
     fit-margin-top="0"
     fit-margin-left="0"
     fit-margin-right="0"
     fit-margin-bottom="0" /><defs
     id="defs4"><clipPath
       id="clipId0"><path
         d="m 0,1536 2048,0 L 2048,0 0,0 Z"
         id="path7"
         inkscape:connector-curvature="0" /></clipPath><path
       id="t_0"
       d="m 221.579,824.82 -12.385,0 12.385,-49.471 z"
       inkscape:connector-curvature="0" /><filter
       id="A"><feColorMatrix
         type="matrix"
         values=" 1 0 0 0 0 0 1 0 0 0 0 0 1 0 0 1 1 1 1 0 0 0 0 0 1 "
         id="feColorMatrix11" /></filter><filter
       id="colorAdd"><feComposite
         in="SourceGraphic"
         in2="BackgroundImage"
         operator="arithmetic"
         k1="0"
         k2="1"
         k3="1"
         k4="0"
         id="feComposite14" /></filter></defs><g
     clip-path="url(#clipId0)"
     id="g16"
     transform="translate(-19.824839,-709.63931)"
     style="fill:none;stroke:#2776bb;stroke-width:0.5"><polyline
       points="20.0853,709.901 20.0784,826.11 "
       id="polyline18" /><polyline
       points="20.0853,709.901 31.59,709.899 "
       id="polyline20" /><polyline
       points="31.5692,826.065 20.0784,826.11 "
       id="polyline22" /><polyline
       points="31.5692,754.968 67.4254,709.899 "
       id="polyline24" /><polyline
       points="67.4254,709.899 78.5089,709.899 "
       id="polyline26" /><polyline
       points="78.5089,709.899 40.3066,760.408 "
       id="polyline28" /><polyline
       points="31.5692,768.424 75.4656,826.042 "
       id="polyline30" /><polyline
       points="40.3066,760.408 89.3635,826.054 "
       id="polyline32" /></g><g
     clip-path="url(#clipId0)"
     id="g34"
     transform="translate(-19.824839,-709.63931)"
     style="fill:none;stroke:#2776bb;stroke-width:0.5"><circle
       cx="146.423"
       cy="767.349"
       r="45.970699"
       id="circle36" /><circle
       cx="146.423"
       cy="767.349"
       r="57.443901"
       id="circle38" /></g><g
     clip-path="url(#clipId0)"
     id="g40"
     transform="translate(-19.824839,-709.63931)"
     style="fill:none;stroke:#2776bb;stroke-width:0.5"><polyline
       points="209.194,824.82 235.148,721.148 "
       id="polyline42" /><polyline
       points="263.782,721.248 289.402,824.82 "
       id="polyline44" /><polyline
       points="221.579,824.82 242.15,726.786 "
       id="polyline46" /><polyline
       points="256.294,726.737 277.389,824.82 "
       id="polyline48" /><path
       d="m 263.782,721.248 a 14.72,14.72 0 0 0 -28.634,-0.1"
       id="path50"
       inkscape:connector-curvature="0" /><path
       d="m 256.294,726.737 a 7.18411,7.18411 0 0 0 -14.144,0.049"
       id="path52"
       inkscape:connector-curvature="0" /></g><g
     clip-path="url(#clipId0)"
     id="g54"
     transform="translate(-19.824839,-709.63931)"
     style="fill:none;stroke:#2776bb;stroke-width:0.5"><polyline
       points="392.868,824.801 392.932,710.563 "
       id="polyline56" /><polyline
       points="392.932,710.563 450.392,710.563 "
       id="polyline58" /><polyline
       points="450.392,710.563 450.392,722.055 "
       id="polyline60" /><polyline
       points="450.392,722.055 404.424,722.055 "
       id="polyline62" /><polyline
       points="404.424,722.055 404.424,756.532 "
       id="polyline64" /><polyline
       points="404.424,756.532 438.9,756.532 "
       id="polyline66" /><polyline
       points="438.9,756.532 438.9,768.024 "
       id="polyline68" /><polyline
       points="438.9,768.024 404.424,768.024 "
       id="polyline70" /><polyline
       points="404.424,768.024 404.449,813.334 "
       id="polyline72" /><polyline
       points="466.879,801.835 487.051,721.148 "
       id="polyline74" /><polyline
       points="515.685,721.248 535.832,801.835 "
       id="polyline76" /><polyline
       points="478.371,801.835 494.053,726.786 "
       id="polyline78" /><polyline
       points="508.197,726.737 524.34,801.835 "
       id="polyline80" /><path
       d="m 515.685,721.248 a 14.72,14.72 0 0 0 -28.634,-0.1"
       id="path82"
       inkscape:connector-curvature="0" /><path
       d="m 508.197,726.737 a 7.18411,7.18411 0 0 0 -14.144,0.049"
       id="path84"
       inkscape:connector-curvature="0" /><path
       d="m 466.879,801.835 a 15.2393,15.2393 0 0 0 -9.757,11.433"
       id="path86"
       inkscape:connector-curvature="0" /><polyline
       points="457.122,813.268 457.122,824.82 "
       id="polyline88" /><polyline
       points="457.122,824.82 468.614,824.82 "
       id="polyline90" /><polyline
       points="468.614,824.82 468.614,813.268 "
       id="polyline92" /><polyline
       points="277.389,824.82 289.402,824.82 "
       id="polyline94" /><polyline
       points="75.4656,826.042 89.3635,826.054 "
       id="polyline96" /><polyline
       points="209.194,824.82 221.579,824.82 "
       id="polyline98" /></g><g
     clip-path="url(#clipId0)"
     id="g100"
     transform="translate(-19.824839,-709.63931)"
     style="fill:none;stroke:#2776bb;stroke-width:0.5"><polyline
       points="302.851,824.82 328.808,721.148 "
       id="polyline102" /><polyline
       points="357.441,721.248 383.061,824.82 "
       id="polyline104" /><polyline
       points="315.232,824.82 335.81,726.786 "
       id="polyline106" /><polyline
       points="349.953,726.737 371.053,824.82 "
       id="polyline108" /><path
       d="m 357.441,721.248 a 14.72,14.72 0 0 0 -28.633,-0.1"
       id="path110"
       inkscape:connector-curvature="0" /><path
       d="m 349.953,726.737 a 7.18411,7.18411 0 0 0 -14.143,0.049"
       id="path112"
       inkscape:connector-curvature="0" /><polyline
       points="371.053,824.82 383.061,824.82 "
       id="polyline114" /><polyline
       points="302.851,824.82 315.232,824.82 "
       id="polyline116" /><path
       d="m 545.397,813.448 a 16.2168,16.2168 0 0 0 -9.565,-11.613"
       id="path118"
       inkscape:connector-curvature="0" /><polyline
       points="545.397,813.448 545.397,824.82 "
       id="polyline120" /><polyline
       points="545.397,824.82 533.905,824.82 "
       id="polyline122" /><polyline
       points="533.905,824.82 533.905,813.448 "
       id="polyline124" /><polyline
       points="478.371,801.835 524.34,801.835 "
       id="polyline126" /><polyline
       points="468.614,813.268 533.905,813.448 "
       id="polyline128" /><polyline
       points="392.868,824.801 449.754,824.681 "
       id="polyline130" /><polyline
       points="449.754,824.681 449.742,813.328 "
       id="polyline132" /><polyline
       points="449.742,813.328 404.449,813.334 "
       id="polyline134" /><polyline
       points="609.828,709.899 609.821,824.82 "
       id="polyline136" /><polyline
       points="609.828,709.899 621.312,709.899 "
       id="polyline138" /><polyline
       points="621.312,709.899 621.312,824.82 "
       id="polyline140" /><polyline
       points="621.312,824.82 609.821,824.82 "
       id="polyline142" /><polyline
       points="621.312,709.899 621.312,767.168 "
       id="polyline144" /><polyline
       points="621.312,767.168 621.312,755.921 "
       id="polyline146" /><polyline
       points="621.312,753.712 656.172,709.899 "
       id="polyline148" /><polyline
       points="656.172,709.899 667.286,709.899 "
       id="polyline150" /><polyline
       points="667.286,709.899 630.05,759.152 "
       id="polyline152" /><polyline
       points="621.312,767.168 665.234,824.82 "
       id="polyline154" /><polyline
       points="630.05,759.152 679.123,824.82 "
       id="polyline156" /><polyline
       points="665.234,824.82 679.123,824.82 "
       id="polyline158" /></g><g
     clip-path="url(#clipId0)"
     id="g160"
     transform="translate(-19.824839,-709.63931)"
     style="fill:none;stroke:#2776bb;stroke-width:0.5"><polyline
       points="609.826,753.557 575.091,709.899 "
       id="polyline162" /><polyline
       points="575.091,709.899 563.969,709.899 "
       id="polyline164" /><polyline
       points="563.969,709.899 601.09,758.999 "
       id="polyline166" /><polyline
       points="609.826,767.202 565.79,824.82 "
       id="polyline168" /><polyline
       points="601.09,758.999 551.903,824.82 "
       id="polyline170" /><polyline
       points="565.79,824.82 551.903,824.82 "
       id="polyline172" /><polyline
       points="31.59,709.899 31.5692,754.968 "
       id="polyline174" /><polyline
       points="31.5692,768.424 31.5692,826.065 "
       id="polyline176" /><polyline
       points="798.942,824.82 824.896,721.148 "
       id="polyline178" /><polyline
       points="853.444,719.914 873.747,801.835 "
       id="polyline180" /><polyline
       points="811.327,824.82 831.898,726.786 "
       id="polyline182" /><polyline
       points="846.042,726.737 863.199,805.585 "
       id="polyline184" /><path
       d="m 853.53,721.248 a 14.7199,14.7199 0 0 0 -28.634,-0.1"
       id="path186"
       inkscape:connector-curvature="0" /><path
       d="m 846.042,726.737 a 7.18411,7.18411 0 0 0 -14.144,0.049"
       id="path188"
       inkscape:connector-curvature="0" /><polyline
       points="798.942,824.82 811.327,824.82 "
       id="polyline190" /><polyline
       points="886.326,801.835 906.871,719.814 "
       id="polyline192" /><polyline
       points="935.588,721.282 961.21,824.82 "
       id="polyline194" /><polyline
       points="897.54,805.946 913.958,726.787 "
       id="polyline196" /><polyline
       points="928.102,726.738 949.197,824.82 "
       id="polyline198" /><path
       d="m 935.588,721.282 a 15.0286,15.0286 0 0 0 -28.717,-1.468"
       id="path200"
       inkscape:connector-curvature="0" /><path
       d="m 928.102,726.738 a 7.18411,7.18411 0 0 0 -14.144,0.049"
       id="path202"
       inkscape:connector-curvature="0" /><polyline
       points="949.197,824.82 961.21,824.82 "
       id="polyline204" /><path
       d="m 863.199,805.585 a 17.5651,17.5651 0 0 0 34.341,0.361"
       id="path206"
       inkscape:connector-curvature="0" /><path
       d="m 873.747,801.835 a 6.58331,6.58331 0 0 0 12.579,0"
       id="path208"
       inkscape:connector-curvature="0" /><polyline
       points="975.272,824.82 975.341,709.899 "
       id="polyline210" /><polyline
       points="975.341,709.899 1170.63,710.193 "
       id="polyline212" /><polyline
       points="1074.75,721.391 986.851,721.391 "
       id="polyline214" /><polyline
       points="986.851,721.391 986.828,756.551 "
       id="polyline216" /><polyline
       points="986.828,756.551 1021.3,756.551 "
       id="polyline218" /><polyline
       points="1021.3,756.551 1021.3,768.043 "
       id="polyline220" /><polyline
       points="1021.3,768.043 986.828,768.043 "
       id="polyline222" /><polyline
       points="986.828,768.043 986.785,813.327 "
       id="polyline224" /><polyline
       points="975.272,824.82 1032.16,824.7 "
       id="polyline226" /><polyline
       points="1032.16,824.7 1032.15,813.362 "
       id="polyline228" /><polyline
       points="1032.15,813.331 986.785,813.327 "
       id="polyline230" /><polyline
       points="1074.75,721.391 1074.75,824.82 "
       id="polyline232" /><polyline
       points="1074.75,824.82 1086.24,824.82 "
       id="polyline234" /><polyline
       points="1086.24,721.391 1086.24,824.82 "
       id="polyline236" /><polyline
       points="1132.21,824.82 1143.7,824.82 "
       id="polyline238" /><polyline
       points="1143.7,824.82 1143.7,767.359 "
       id="polyline240" /><polyline
       points="1132.21,755.867 1132.21,824.82 "
       id="polyline242" /><polyline
       points="1132.21,755.867 1166.69,755.867 "
       id="polyline244" /><polyline
       points="1143.7,767.359 1170.42,767.322 "
       id="polyline246" /><path
       d="m 1170.42,767.322 a 28.6662,28.6662 0 0 0 0.21,-57.129"
       id="path248"
       inkscape:connector-curvature="0" /><polyline
       points="1086.24,721.391 1166.69,721.391 "
       id="polyline250" /><path
       d="m 1166.69,755.867 a 17.2433,17.2433 0 1 0 0,-34.476"
       id="path252"
       inkscape:connector-curvature="0" /><circle
       cx="1270.1"
       cy="767.37598"
       r="45.970699"
       id="circle254" /><circle
       cx="1270.1"
       cy="767.37598"
       r="57.443901"
       id="circle256" /><polyline
       points="1339.07,824.82 1350.56,824.82 "
       id="polyline258" /><polyline
       points="1350.56,824.82 1350.56,721.391 "
       id="polyline260" /><polyline
       points="1350.56,721.391 1396.53,721.391 "
       id="polyline262" /><polyline
       points="1396.53,721.391 1396.53,824.82 "
       id="polyline264" /><polyline
       points="1396.53,824.82 1408.02,824.82 "
       id="polyline266" /><polyline
       points="1408.02,824.82 1408.02,709.899 "
       id="polyline268" /><polyline
       points="1408.02,709.899 1339.07,709.899 "
       id="polyline270" /><polyline
       points="1339.07,709.899 1339.07,824.82 "
       id="polyline272" /></g><g
     clip-path="url(#clipId0)"
     id="g274"
     transform="translate(-19.824839,-709.63931)"
     style="fill:none;stroke:#2776bb;stroke-width:0.5"><circle
       cx="1476.96"
       cy="767.37598"
       r="45.970699"
       id="circle276" /><circle
       cx="1476.96"
       cy="767.37598"
       r="57.443901"
       id="circle278" /></g><g
     clip-path="url(#clipId0)"
     id="g280"
     transform="translate(-19.824839,-709.63931)"
     style="fill:none;stroke:#2776bb;stroke-width:0.5"><polyline
       points="1534.44,824.82 1560.39,721.148 "
       id="polyline282" /><polyline
       points="1589.02,721.248 1614.64,824.82 "
       id="polyline284" /><polyline
       points="1546.82,824.82 1567.39,726.786 "
       id="polyline286" /><polyline
       points="1581.54,726.737 1602.63,824.82 "
       id="polyline288" /><path
       d="m 1589.02,721.248 a 14.72,14.72 0 0 0 -28.63,-0.1"
       id="path290"
       inkscape:connector-curvature="0" /><path
       d="m 1581.54,726.737 a 7.18411,7.18411 0 0 0 -14.15,0.049"
       id="path292"
       inkscape:connector-curvature="0" /><polyline
       points="1602.63,824.82 1614.64,824.82 "
       id="polyline294" /><polyline
       points="1534.44,824.82 1546.82,824.82 "
       id="polyline296" /></g><g
     clip-path="url(#clipId0)"
     id="g298"
     transform="translate(-19.824839,-709.63931)"
     style="fill:none;stroke:#2776bb;stroke-width:0.5"><polyline
       points="1626.37,709.899 1637.86,709.899 "
       id="polyline300" /><polyline
       points="1637.86,709.899 1637.89,796.772 "
       id="polyline302" /><polyline
       points="1626.37,709.899 1626.37,824.82 "
       id="polyline304" /><polyline
       points="1626.37,824.82 1635.43,824.804 "
       id="polyline306" /><polyline
       points="1686.68,709.899 1695.32,709.899 "
       id="polyline308" /><polyline
       points="1695.32,709.899 1695.32,824.82 "
       id="polyline310" /><polyline
       points="1695.32,824.82 1683.83,824.82 "
       id="polyline312" /><polyline
       points="1683.82,737.413 1683.83,824.82 "
       id="polyline314" /></g><g
     clip-path="url(#clipId0)"
     id="g316"
     transform="translate(-19.824839,-709.63931)"
     style="fill:none;stroke:#2776bb;stroke-width:0.5"><polyline
       points="1741.29,824.82 1752.78,824.82 "
       id="polyline318" /><polyline
       points="1752.78,824.82 1752.78,721.391 "
       id="polyline320" /><polyline
       points="1741.29,721.391 1741.29,824.82 "
       id="polyline322" /><polyline
       points="1741.29,721.391 1706.82,721.391 "
       id="polyline324" /><polyline
       points="1706.82,721.391 1706.82,709.899 "
       id="polyline326" /><polyline
       points="1706.82,709.899 1787.26,709.899 "
       id="polyline328" /><polyline
       points="1787.26,721.391 1752.78,721.391 "
       id="polyline330" /></g><g
     clip-path="url(#clipId0)"
     id="g332"
     transform="translate(-19.824839,-709.63931)"
     style="fill:none;stroke:#2776bb;stroke-width:0.5"><polyline
       points="1798.75,824.82 1798.75,709.899 "
       id="polyline334" /><polyline
       points="1856.21,709.899 1856.28,722.074 "
       id="polyline336" /><polyline
       points="1856.21,721.391 1810.24,721.391 "
       id="polyline338" /><polyline
       points="1810.24,721.391 1810.24,755.867 "
       id="polyline340" /><polyline
       points="1810.24,755.867 1844.72,755.867 "
       id="polyline342" /><polyline
       points="1844.72,755.867 1844.72,767.359 "
       id="polyline344" /><polyline
       points="1844.72,767.359 1810.24,767.359 "
       id="polyline346" /><polyline
       points="1810.24,767.359 1810.24,813.328 "
       id="polyline348" /><polyline
       points="1798.75,824.82 1856.21,824.82 "
       id="polyline350" /><polyline
       points="1856.21,824.82 1856.21,813.328 "
       id="polyline352" /><polyline
       points="1856.21,813.328 1810.24,813.328 "
       id="polyline354" /></g><g
     clip-path="url(#clipId0)"
     id="g356"
     transform="translate(-19.824839,-709.63931)"
     style="fill:none;stroke:#2776bb;stroke-width:0.5"><polyline
       points="1867.71,709.899 1879.2,709.899 "
       id="polyline358" /><polyline
       points="1879.2,709.899 1879.2,755.867 "
       id="polyline360" /><polyline
       points="1879.2,755.867 1925.17,755.867 "
       id="polyline362" /><polyline
       points="1925.17,755.867 1925.17,709.899 "
       id="polyline364" /><polyline
       points="1925.17,709.899 1936.66,709.899 "
       id="polyline366" /><polyline
       points="1936.66,709.899 1936.66,824.82 "
       id="polyline368" /><polyline
       points="1936.66,824.82 1925.17,824.82 "
       id="polyline370" /><polyline
       points="1925.17,824.82 1925.17,767.359 "
       id="polyline372" /><polyline
       points="1925.17,767.359 1879.2,767.359 "
       id="polyline374" /><polyline
       points="1879.2,767.359 1879.2,824.82 "
       id="polyline376" /><polyline
       points="1879.2,824.82 1867.71,824.82 "
       id="polyline378" /><polyline
       points="1867.71,824.82 1867.71,709.899 "
       id="polyline380" /><polyline
       points="1947.71,824.82 1973.67,721.148 "
       id="polyline382" /><polyline
       points="2002.3,721.248 2027.92,824.82 "
       id="polyline384" /><polyline
       points="1960.1,824.82 1967.33,790.343 "
       id="polyline386" /></g><g
     clip-path="url(#clipId0)"
     id="g388"
     transform="translate(-19.824839,-709.63931)"
     style="fill:none;stroke:#2776bb;stroke-width:0.5"><polyline
       points="1994.81,726.737 2006.02,778.851 "
       id="polyline390" /><path
       d="m 2002.3,721.248 a 14.72,14.72 0 0 0 -28.63,-0.1"
       id="path392"
       inkscape:connector-curvature="0" /><path
       d="m 1994.81,726.737 a 7.18411,7.18411 0 0 0 -14.14,0.049"
       id="path394"
       inkscape:connector-curvature="0" /><polyline
       points="2015.91,824.82 2027.92,824.82 "
       id="polyline396" /><polyline
       points="1947.71,824.82 1960.1,824.82 "
       id="polyline398" /><polyline
       points="1967.33,790.343 2008.49,790.343 "
       id="polyline400" /><polyline
       points="1969.74,778.851 2006.02,778.851 "
       id="polyline402" /><polyline
       points="1980.67,726.786 1969.74,778.851 "
       id="polyline404" /><polyline
       points="2008.49,790.343 2015.91,824.82 "
       id="polyline406" /><polyline
       points="1798.75,709.899 1856.21,709.899 "
       id="polyline408" /><polyline
       points="1787.26,709.899 1787.26,721.391 "
       id="polyline410" /><polyline
       points="1681.78,715.148 1640.42,796.756 "
       id="polyline412" /><polyline
       points="1639.72,821.106 1681.59,737.365 "
       id="polyline414" /><path
       d="m 1637.89,796.772 a 1.39894,1.39894 0 0 0 2.53,-0.016"
       id="path416"
       inkscape:connector-curvature="0" /><path
       d="m 1683.82,737.413 a 1.24773,1.24773 0 0 0 -2.23,-0.048"
       id="path418"
       inkscape:connector-curvature="0" /><path
       d="m 1635.43,824.804 a 6.92886,6.92886 0 0 0 4.29,-3.698"
       id="path420"
       inkscape:connector-curvature="0" /><path
       d="m 1686.68,709.899 a 10.2196,10.2196 0 0 0 -4.9,5.249"
       id="path422"
       inkscape:connector-curvature="0" /></g><path
     style="fill:#000080"
     d="m 780.88483,111.92545 c 0.49107,-1.6287 6.44553,-25.217003 13.23215,-52.418303 6.78663,-27.2013 13.01231,-50.7145002 13.83487,-52.2514002 0.82255,-1.537 3.77265,-3.7377 6.55576,-4.8905 4.27065,-1.76899998 5.89009,-1.70029998 10.37887,0.4403 2.92527,1.3949 6.15886,4.6174 7.18576,7.161 1.0269,2.5435002 6.26454,22.5636002 11.6392,44.4891002 10.8506,44.2639 12.79964,48.110603 20.81679,41.0847 2.4048,-2.1075 5.90534,-13.6301 13.47006,-44.339 5.62148,-22.8203 10.99305,-42.7515002 11.93682,-44.2914002 4.14102,-6.75679998 15.8146,-7.36409998 21.46826,-1.1169 1.72629,1.9076 7.74707,23.1117002 15.55124,54.7689002 7.00391,28.411 12.74615,52.205503 12.76052,52.876703 0.0144,0.6712 -2.17048,1.2203 -4.85522,1.2203 -2.68475,0 -4.88136,-0.2888 -4.88136,-0.6419 0,-4.237 -21.67487,-99.721803 -22.99878,-101.317003 -2.82359,-3.4022002 -9.20113,-2.5991 -11.78658,1.4844 -1.27491,2.0135 -6.03493,21.767 -10.57783,43.8967 -4.54289,22.1296 -9.15668,41.6718 -10.25286,43.427003 -6.19936,9.9268 -22.67967,9.2578 -27.95163,-1.1347 -1.23498,-2.434503 -6.15514,-22.649303 -10.93367,-44.921803 -4.77854,-22.2726 -9.6856,-41.4929 -10.90459,-42.7119 -2.75945,-2.7595002 -9.48311,-2.8905002 -11.24379,-0.2191 -0.72401,1.0985 -6.07569,24.3459 -11.89264,51.661 l -10.57627,49.663803 -5.43396,0.5207 c -4.61181,0.442 -5.29887,0.073 -4.54112,-2.4407 z"
     id="path47219"
     inkscape:connector-curvature="0" /><path
     style="fill:#000080"
     d="m 956.01245,57.709847 0,-56.94920018 96.40685,0.01 c 62.2527,0.01 98.5842,0.61379998 102.5529,1.71589998 13.5806,3.7714 21.8568,16.1848002 20.2565,30.3827002 -0.936,8.3043 -4.7465,14.2385 -12.5556,19.5534 -4.723,3.2144 -7.4339,3.661 -22.2233,3.661 l -16.8441,0 0,29.2881 0,29.288203 -4.8813,0 -4.8814,0 0,-34.222203 0,-34.2221 19.7311,0.2168 c 22.7136,0.2496 26.5842,-1.338 30.5415,-12.5269 2.0217,-5.7161 1.9629,-7.0784 -0.5325,-12.337 -4.949,-10.4293 -8.0721,-11.0442 -56.0877,-11.0442 l -42.466,0 0,52.0678 0,52.067803 -4.8813,0 -4.8814,0 0,-52.067803 0,-52.0678 -44.7457,0 -44.74584,0 0,18.7118 0,18.7119 17.08474,0 17.0848,0 0,4.8814 0,4.8813 -17.0848,0 -17.08474,0 0,23.5932 0,23.593203 22.77974,0 22.7796,0 0,4.8814 0,4.8814 -27.661,0 -27.66105,0 0,-56.949203 z"
     id="path47221"
     inkscape:connector-curvature="0" /><path
     style="fill:#000080"
     d="m 1235.8769,112.15015 c -24.2158,-6.7315 -42.3051,-30.009703 -42.3051,-54.440303 0,-17.1503 10.5341,-36.847 24.7326,-46.2451 17.2553,-11.42140018 37.0391,-13.1589002 55.088,-4.8381002 35.9337,16.5658002 44.1811,63.8805002 15.9096,91.2718002 -14.0445,13.607303 -35.3234,19.283703 -53.4251,14.251703 z m 35.3959,-12.779203 c 34.8625,-17.8171 33.7439,-68.3255 -1.8652,-84.2203 -11.5208,-5.1426 -28.118,-5.1261 -38.7829,0.039 -15.5101,7.5108 -27.2902,25.8654 -27.2902,42.5206 0,20.0511 15.9343,40.6728 35.1284,45.462203 9.5359,2.3795 23.9939,0.7045 32.8099,-3.801103 z"
     id="path47223"
     inkscape:connector-curvature="0" /><path
     style="fill:#000080"
     d="m 1320.4871,57.709847 0,-56.94920018 33.3559,0 33.3559,0 0,56.94920018 0,56.949103 -4.8813,0 -4.8814,0 0,-52.067803 0,-52.0678 -23.5932,0 -23.5932,0 0,52.0678 0,52.067803 -4.8814,0 -4.8813,0 0,-56.949103 z"
     id="path47225"
     inkscape:connector-curvature="0" /><path
     style="fill:#000080"
     d="m 1442.521,112.06605 c -38.3506,-10.1938 -54.1775,-56.746503 -30.0492,-88.385703 29.9398,-39.2596 90.4307,-24.03470018 100.3288,25.2518 5.3998,26.8872 -13.8095,55.979303 -41.7401,63.214703 -11.7323,3.0392 -16.8564,3.0247 -28.5395,-0.081 z m 34.5963,-12.203703 c 9.4908,-4.7521 16.9793,-12.1762 22.0026,-21.8135 6.054,-11.6145 6.054,-29.0635 0,-40.678 -5.0614,-9.7103 -12.4613,-17.0055 -22.4294,-22.112 -10.8256,-5.5458002 -28.6901,-5.3156002 -39.9677,0.515 -9.4302,4.8754 -18.9183,14.6566 -22.8876,23.5947 -4.2065,9.4723 -3.7722,28.6016 0.8674,38.1993 4.0365,8.3503 15.4727,19.8651 22.5427,22.697703 13.567,5.4356 28.5127,5.2845 39.872,-0.403203 z"
     id="path47227"
     inkscape:connector-curvature="0" /><path
     style="fill:#000080;stroke:none"
     d="m 1515.92,112.26375 c 0.3283,-1.1074 6.3614,-24.750303 13.4068,-52.539903 7.0455,-27.7896 13.5497,-51.6556002 14.4539,-53.0355002 3.9282,-5.99519998 14.4365,-7.03739998 20.0835,-1.9918 3.373,3.0137 4.1816,5.7110002 16.1254,53.7880002 6.9158,27.8384 12.8432,51.780203 13.1719,53.204003 0.552,2.3908 0.2002,2.5887 -4.6017,2.5887 -2.8597,0 -5.2098,-0.1294 -5.2224,-0.2876 -0.013,-0.1582 -4.8797,-22.778903 -10.8157,-50.268203 -11.4187,-52.8788 -11.4575,-52.9934 -17.925,-52.9934 -6.3957,0 -6.4267,0.094 -17.5978,53.2413 l -10.5743,50.307903 -5.5508,0 c -4.7468,0 -5.4643,-0.2916 -4.9538,-2.0135 z"
     id="path47231"
     inkscape:connector-curvature="0" /><path
     style="fill:#000080"
     d="m 1607.5219,57.900447 0,-56.3768002 4.6021,0 4.6022,0 0,14.1952002 c 0,33.0436 1.5315,73.3115 2.7741,72.9382 0.6891,-0.2071 11.09,-19.7673 23.1132,-43.4673 l 21.8604,-43.0908002 4.8898,-0.3538 4.8899,-0.3538 0,56.4430002 0,56.442903 -4.6022,0 -4.6022,0 0,-43.720803 c 0,-38.0608 -0.223,-43.7207 -1.7227,-43.7207 -1.1151,0 -9.0709,14.7106 -22.5562,41.7073 -11.4584,22.939 -21.6361,42.613303 -22.6171,43.720703 -1.1155,1.2593 -3.4408,2.0135 -6.2075,2.0135 l -4.4238,0 0,-56.376803 z"
     id="path47233"
     inkscape:connector-curvature="0" /><path
     style="fill:#000080"
     d="m 1722.5765,62.502647 0,-51.7746 -17.2582,0 -17.2582,0 0,-4.6022002 0,-4.6022 39.1186,0 39.1186,0 0,4.6022 0,4.6022002 -17.2582,0 -17.2582,0 0,51.7746 0,51.774603 -4.6022,0 -4.6022,0 0,-51.774603 z"
     id="path47235"
     inkscape:connector-curvature="0" /><path
     style="fill:#000080"
     d="m 1780.1038,57.900447 0,-56.3768002 27.6132,0 27.6131,0 0,4.6022 0,4.6022002 -23.0402,0 -23.0401,0 0.3168,17.9522 0.3169,17.9522 16.9706,-0.1716 16.9705,-0.1716 0,5.2303 0,5.2304 -17.2582,0 -17.2582,0 0,23.5862 0,23.586203 23.011,0 23.0109,0 0,5.1774 0,5.1775 -27.6131,0 -27.6132,0 0,-56.376803 z"
     id="path47237"
     inkscape:connector-curvature="0" /><path
     style="fill:#000080"
     d="m 1849.1366,57.900447 0,-56.3768002 4.6022,0 4.6022,0 0,22.4357002 0,22.4357 23.011,0 c 12.656,0 23.3992,0.1294 23.8738,0.2876 0.4746,0.1582 1.0033,-9.9379 1.1749,-22.4357 l 0.3119,-22.7233002 4.5779,0 4.5778,0 0,56.3768002 0,56.376803 -4.582,0 -4.5821,0 -0.3078,-28.476003 -0.3077,-28.4761 -23.8738,-0.3109 -23.8739,-0.311 0,28.787 0,28.787003 -4.6022,0 -4.6022,0 0,-56.376803 z"
     id="path47239"
     inkscape:connector-curvature="0" /><path
     style="fill:#000080"
     d="m 1941.9234,61.639747 c 12.8872,-51.6994002 13.192,-52.7042002 17.1023,-56.3768002 3.3042,-3.1033 4.8843,-3.7393 9.2907,-3.7393 4.4582,0 5.9101,0.6007 9.0561,3.7467 3.5802,3.5802 4.3162,6.0579002 16.5678,55.7720002 7.0517,28.6139 12.8212,52.297403 12.8212,52.630103 0,0.3326 -2.3298,0.6048 -5.1774,0.6048 -2.8476,0 -5.1775,-0.2408 -5.1775,-0.5351 0,-0.2942 -1.5532,-7.8197 -3.4516,-16.723103 -1.8984,-8.9034 -3.4517,-16.4288 -3.4517,-16.7231 0,-0.2943 -9.5684,-0.5351 -21.2632,-0.5351 -21.108,0 -21.2675,0.019 -21.8561,2.5887 -1.4318,6.2509 -6.3429,30.283003 -6.3483,31.064803 0,0.4746 -2.532,0.8629 -5.6196,0.8629 l -5.6137,0 13.121,-52.637503 z m 42.9971,-1.7258 c -1.1297,-5.2206 -3.763,-17.4835 -5.8518,-27.2508 -4.0672,-19.0188 -5.5625,-21.9351 -11.2474,-21.9351 -5.7786,0 -6.9455,2.8146 -12.9374,31.2054 -3.1073,14.7233 -5.6497,26.9278 -5.6497,27.1211 0,0.1932 8.4916,0.3514 18.8702,0.3514 l 18.8701,0 -2.054,-9.492 z"
     id="path47241"
     inkscape:connector-curvature="0" /><path
     style="fill:#000080"
     d="m 1.3587196,58.475747 0,-56.9521002 4.602187,0 4.6021864,0 0,22.4357002 c 0,12.3396 0.38831,22.4097 0.86291,22.378 0.474601,-0.032 8.789536,-10.1278 18.477632,-22.4357 l 17.614722,-22.3780002 4.632835,0 4.632835,0 -3.263538,4.3349 c -1.794945,2.3841 -10.14876,13.4641002 -18.564032,24.6222002 l -15.300495,20.2873 23.641958,31.7526 c 13.003076,17.4639 23.641958,32.012303 23.641958,32.329903 0,0.3175 -2.503416,0.5772 -5.563145,0.5772 l -5.563145,0 -21.762337,-28.725103 c -11.969287,-15.7989 -22.150647,-28.7426 -22.625248,-28.7637 -0.4746,-0.021 -0.86291,12.9052 -0.86291,28.7252 l 0,28.763603 -4.6021864,0 -4.602187,0 0,-56.952003 z"
     id="path47243"
     inkscape:connector-curvature="0" /><path
     style="fill:#000080"
     d="M 111.015,112.07505 C 86.56121,105.07875 70.391518,83.188647 70.391518,57.080047 c 0,-15.3757 4.446528,-26.386 15.337412,-37.9779 C 96.94308,7.1662468 109.8591,1.5143468 125.8691,1.5373468 c 16.91052,0.024 29.24868,5.0513 40.57117,16.5304002 11.02628,11.1787 16.70482,24.391 16.70482,38.8673 0,38.0356 -35.92484,65.498403 -72.13009,55.140003 z m 35.31589,-12.309903 c 9.57901,-4.4934 17.77754,-12.6787 22.33824,-22.3021 3.29333,-6.9492 3.54552,-8.3829 3.54238,-20.1379 -0.003,-11.6622 -0.2686,-13.198 -3.38096,-19.5592 -6.78718,-13.8721 -19.97548,-23.5275 -35.69346,-26.1321 -29.73028,-4.9264002 -57.5482,22.9874 -52.60958,52.791 2.91806,17.61 14.04999,31.2322 30.51149,37.337203 4.66644,1.7306 8.30706,2.1317 16.87985,1.8597 9.35375,-0.2969 12.00929,-0.8531 18.41204,-3.856603 z"
     id="path47245"
     inkscape:connector-curvature="0" /><path
     style="fill:#000080"
     d="m 203.43323,61.888447 c 7.20874,-28.8138 13.70489,-53.3464002 14.43587,-54.5169002 2.14909,-3.4413 7.27408,-5.8479 12.45334,-5.8479 3.91292,0 5.5362,0.7089 8.5694,3.7421 3.57031,3.5703 4.30657,6.0387002 16.04326,53.7880002 6.76567,27.5253 12.59342,51.211003 12.95055,52.634803 0.60302,2.404 0.27109,2.5887 -4.65284,2.5887 -2.91621,0 -5.30219,-0.1867 -5.30219,-0.415 0,-0.9263 -19.74044,-92.521403 -20.79732,-96.499003 -1.21567,-4.5751 -3.78876,-6.6352 -8.28766,-6.6352 -5.64121,0 -6.43389,2.4669 -17.07859,53.1493 -5.61727,26.7455 -10.21322,49.026803 -10.21322,49.514003 0,0.4873 -2.52617,0.8859 -5.61371,0.8859 l -5.61371,0 13.10682,-52.388803 z"
     id="path47247"
     inkscape:connector-curvature="0" /><path
     style="fill:#000080"
     d="m 284.42566,113.41435 c 0.0179,-0.4746 5.94117,-24.420403 13.16291,-53.212803 12.44744,-49.6268 13.31448,-52.5144002 16.66861,-55.5139002 6.70557,-5.9964 19.09663,-3.1008 21.77484,5.0884 0.6886,2.1056002 6.88248,26.4798002 13.76418,54.1648002 l 12.51217,50.336403 -5.3041,-0.01 -5.3041,-0.01 -10.64196,-49.661603 c -6.91764,-32.2816 -11.30856,-50.3981 -12.5467,-51.7662 -2.43462,-2.6902 -8.68373,-2.742 -11.01951,-0.091 -1.06999,1.2142 -5.73666,20.9658 -11.75697,49.7611 -5.4905,26.2612 -10.24357,48.653803 -10.56236,49.761203 -0.43975,1.5275 -1.81032,2.0134 -5.67955,2.0134 -2.80496,0 -5.08532,-0.3883 -5.06746,-0.8629 z"
     id="path47249"
     inkscape:connector-curvature="0" /><path
     style="fill:#000080"
     d="m 374.13583,57.900447 0,-56.3768002 27.61312,0 27.61311,0 0,5.1775 0,5.1775002 -23.01093,0 -23.01093,0 0,17.8334 0,17.8335 17.2582,0 17.2582,0 0,5.1775 0,5.1774 -17.2582,0 -17.2582,0 0,23.0109 0,23.011003 23.01093,0 23.01093,0 0,5.1774 0,5.1775 -27.61311,0 -27.61312,0 0,-56.376803 z"
     id="path47251"
     inkscape:connector-curvature="0" /><path
     style="fill:#000080"
     d="m 438.56644,107.19585 c 0,-6.806 0.18546,-7.257903 4.76779,-11.616903 l 4.7678,-4.5355 10.21564,-40.8137 c 5.6186,-22.4474 10.98767,-41.9918002 11.93127,-43.4319002 4.04729,-6.17699998 14.4579,-7.19179998 20.29293,-1.9782 3.51512,3.1407 4.18443,5.2667002 14.21736,45.1589002 l 10.52859,41.863 4.7848,4.7545 c 4.48066,4.452203 4.78482,5.165303 4.78482,11.217803 l 0,6.4634 -5.17746,0 -5.17746,0 0,-5.7527 0,-5.7528 -33.36586,0 -33.36585,0 0,5.7528 0,5.7527 -4.60219,0 -4.60218,0 0,-7.0814 z m 66.17032,-17.367703 c -0.33287,-1.4238 -3.96438,-18.38 -8.07002,-37.6804 -4.10564,-19.3004 -7.96752,-36.2423 -8.58195,-37.6487 -2.26985,-5.1954002 -11.54944,-4.8361002 -13.66006,0.5289 -1.12868,2.869 -16.299,73.9567 -16.299,76.3767 0,0.5567 10.62366,1.0122 23.60813,1.0122 l 23.60812,0 -0.60522,-2.5887 z"
     id="path47253"
     inkscape:connector-curvature="0" /><path
     style="fill:#000080"
     d="m 534.92683,112.83905 c 0.63073,-0.791 11.11936,-14.899603 23.30807,-31.352403 12.18871,-16.4528 22.56311,-30.4319 23.05423,-31.0647 0.504,-0.6494 -6.35098,-10.6723 -15.73792,-23.011 -20.94598,-27.53230018 -20.0215,-25.8890002 -14.55932,-25.8804002 4.2714,0.01 4.68193,0.4179 21.37726,21.4097002 l 17.02223,21.4029 -0.3393,6.7966 -0.33931,6.7967 -21.28511,28.1105 -21.28511,28.110503 -6.18125,0.06 c -4.7949,0.047 -5.92405,-0.2627 -5.03447,-1.3783 z"
     id="path47255"
     inkscape:connector-curvature="0" /><path
     style="fill:#000080"
     d="m 601.03011,86.376447 c -0.13013,-15.6618 0.15171,-28.4767 0.62631,-28.4776 0.4746,-9e-4 0.72964,8.4125 0.56676,18.6964 -0.55459,35.013703 -0.95608,38.305303 -1.19307,9.7812 z"
     id="path47257"
     inkscape:connector-curvature="0" /><path
     style="fill:#000080"
     d="m 590.43859,57.900447 0,-56.3768002 5.17746,0 5.17746,0 0,56.3768002 0,56.376803 -5.17746,0 -5.17746,0 0,-56.376803 z"
     id="path47259"
     inkscape:connector-curvature="0" /><path
     style="fill:#000080"
     d="m 623.79825,85.505447 -21.96854,-28.7717 0.34481,-6.3546 c 0.34039,-6.2729 0.55885,-6.626 17.02774,-27.5217 l 16.68292,-21.1672002 4.84946,-0.083 4.84945,-0.083 -17.8938,23.6445002 c -10.4558,13.8161 -17.63617,24.316 -17.274,25.2598 0.3409,0.8884 10.6404,14.9707 22.88779,31.294 12.24739,16.3234 22.65814,30.326103 23.135,31.117103 0.64784,1.0746 -0.59153,1.4382 -4.90263,1.4382 l -5.76965,0 -21.96855,-28.771803 z"
     id="path47261"
     inkscape:connector-curvature="0" /><path
     style="fill:#000080"
     d="m 536.3629,112.49775 c 0,-0.3459 9.5012,-13.419003 21.11377,-29.051303 11.61258,-15.6323 21.81321,-29.5553 22.66808,-30.9401 2.06383,-3.343 1.74137,-3.8987 -16.33451,-28.15 -8.13523,-10.9145 -14.79133,-20.5169002 -14.79133,-21.3386002 0,-2.37179998 2.9779,-1.7441 6.73849,1.4202 1.90487,1.6028 10.16601,11.3106002 18.35809,21.5727002 l 14.89469,18.6585 -0.72397,6.9431 c -0.71569,6.8634 -0.96083,7.2557 -21.38984,34.2287 l -20.66586,27.285803 -4.9338,0 c -2.7136,0 -4.93381,-0.2831 -4.93381,-0.629 z"
     id="path47263"
     inkscape:connector-curvature="0" /></svg>