<?xml version="1.0" encoding="UTF-8" standalone="no"?>
<svg
   xmlns:dc="http://purl.org/dc/elements/1.1/"
   xmlns:cc="http://creativecommons.org/ns#"
   xmlns:rdf="http://www.w3.org/1999/02/22-rdf-syntax-ns#"
   xmlns:svg="http://www.w3.org/2000/svg"
   xmlns="http://www.w3.org/2000/svg"
   xmlns:sodipodi="http://sodipodi.sourceforge.net/DTD/sodipodi-0.dtd"
   xmlns:inkscape="http://www.inkscape.org/namespaces/inkscape"
   viewBox="0 0 2008.3488 116.72425"
   version="1.1"
   xml:space="preserve"
   id="svg2"
   inkscape:version="0.91 r13725"
   sodipodi:docname="logo-title-white.svg"
   width="2008.3488"
   height="116.72425"
   style="fill-rule:evenodd;stroke-linecap:round;stroke-linejoin:round"><metadata
     id="metadata426"><rdf:RDF><cc:Work
         rdf:about=""><dc:format>image/svg+xml</dc:format><dc:type
           rdf:resource="http://purl.org/dc/dcmitype/StillImage" /><dc:title></dc:title></cc:Work></rdf:RDF></metadata><sodipodi:namedview
     pagecolor="#ffffff"
     bordercolor="#666666"
     borderopacity="1"
     objecttolerance="10"
     gridtolerance="10"
     guidetolerance="10"
     inkscape:pageopacity="0"
     inkscape:pageshadow="2"
     inkscape:window-width="1920"
     inkscape:window-height="986"
     id="namedview424"
     showgrid="false"
     inkscape:snap-global="true"
     inkscape:zoom="4.157404"
     inkscape:cx="1853.571"
     inkscape:cy="119.10877"
     inkscape:window-x="1920"
     inkscape:window-y="0"
     inkscape:window-maximized="1"
     inkscape:current-layer="svg2"
     fit-margin-top="0"
     fit-margin-left="0"
     fit-margin-right="0"
     fit-margin-bottom="0" /><defs
     id="defs4"><clipPath
       id="clipId0"><path
         d="m 0,1536 2048,0 L 2048,0 0,0 Z"
         id="path7"
         inkscape:connector-curvature="0" /></clipPath><path
       id="t_0"
       d="m 221.579,824.82 -12.385,0 12.385,-49.471 z"
       inkscape:connector-curvature="0" /><filter
       id="A"><feColorMatrix
         type="matrix"
         values=" 1 0 0 0 0 0 1 0 0 0 0 0 1 0 0 1 1 1 1 0 0 0 0 0 1 "
         id="feColorMatrix11" /></filter><filter
       id="colorAdd"><feComposite
         in="SourceGraphic"
         in2="BackgroundImage"
         operator="arithmetic"
         k1="0"
         k2="1"
         k3="1"
         k4="0"
         id="feComposite14" /></filter></defs><g
     clip-path="url(#clipId0)"
     id="g16"
     transform="translate(-19.824839,-709.63931)"
     style="fill:none;stroke:#2776bb;stroke-width:0.5"><polyline
       points="20.0853,709.901 20.0784,826.11 "
       id="polyline18" /><polyline
       points="20.0853,709.901 31.59,709.899 "
       id="polyline20" /><polyline
       points="31.5692,826.065 20.0784,826.11 "
       id="polyline22" /><polyline
       points="31.5692,754.968 67.4254,709.899 "
       id="polyline24" /><polyline
       points="67.4254,709.899 78.5089,709.899 "
       id="polyline26" /><polyline
       points="78.5089,709.899 40.3066,760.408 "
       id="polyline28" /><polyline
       points="31.5692,768.424 75.4656,826.042 "
       id="polyline30" /><polyline
       points="40.3066,760.408 89.3635,826.054 "
       id="polyline32" /></g><g
     clip-path="url(#clipId0)"
     id="g34"
     transform="translate(-19.824839,-709.63931)"
     style="fill:none;stroke:#2776bb;stroke-width:0.5"><circle
       cx="146.423"
       cy="767.349"
       r="45.970699"
       id="circle36" /><circle
       cx="146.423"
       cy="767.349"
       r="57.443901"
       id="circle38" /></g><g
     clip-path="url(#clipId0)"
     id="g40"
     transform="translate(-19.824839,-709.63931)"
     style="fill:none;stroke:#2776bb;stroke-width:0.5"><polyline
       points="209.194,824.82 235.148,721.148 "
       id="polyline42" /><polyline
       points="263.782,721.248 289.402,824.82 "
       id="polyline44" /><polyline
       points="221.579,824.82 242.15,726.786 "
       id="polyline46" /><polyline
       points="256.294,726.737 277.389,824.82 "
       id="polyline48" /><path
       d="m 263.782,721.248 a 14.72,14.72 0 0 0 -28.634,-0.1"
       id="path50"
       inkscape:connector-curvature="0" /><path
       d="m 256.294,726.737 a 7.18411,7.18411 0 0 0 -14.144,0.049"
       id="path52"
       inkscape:connector-curvature="0" /></g><g
     clip-path="url(#clipId0)"
     id="g54"
     transform="translate(-19.824839,-709.63931)"
     style="fill:none;stroke:#2776bb;stroke-width:0.5"><polyline
       points="392.868,824.801 392.932,710.563 "
       id="polyline56" /><polyline
       points="392.932,710.563 450.392,710.563 "
       id="polyline58" /><polyline
       points="450.392,710.563 450.392,722.055 "
       id="polyline60" /><polyline
       points="450.392,722.055 404.424,722.055 "
       id="polyline62" /><polyline
       points="404.424,722.055 404.424,756.532 "
       id="polyline64" /><polyline
       points="404.424,756.532 438.9,756.532 "
       id="polyline66" /><polyline
       points="438.9,756.532 438.9,768.024 "
       id="polyline68" /><polyline
       points="438.9,768.024 404.424,768.024 "
       id="polyline70" /><polyline
       points="404.424,768.024 404.449,813.334 "
       id="polyline72" /><polyline
       points="466.879,801.835 487.051,721.148 "
       id="polyline74" /><polyline
       points="515.685,721.248 535.832,801.835 "
       id="polyline76" /><polyline
       points="478.371,801.835 494.053,726.786 "
       id="polyline78" /><polyline
       points="508.197,726.737 524.34,801.835 "
       id="polyline80" /><path
       d="m 515.685,721.248 a 14.72,14.72 0 0 0 -28.634,-0.1"
       id="path82"
       inkscape:connector-curvature="0" /><path
       d="m 508.197,726.737 a 7.18411,7.18411 0 0 0 -14.144,0.049"
       id="path84"
       inkscape:connector-curvature="0" /><path
       d="m 466.879,801.835 a 15.2393,15.2393 0 0 0 -9.757,11.433"
       id="path86"
       inkscape:connector-curvature="0" /><polyline
       points="457.122,813.268 457.122,824.82 "
       id="polyline88" /><polyline
       points="457.122,824.82 468.614,824.82 "
       id="polyline90" /><polyline
       points="468.614,824.82 468.614,813.268 "
       id="polyline92" /><polyline
       points="277.389,824.82 289.402,824.82 "
       id="polyline94" /><polyline
       points="75.4656,826.042 89.3635,826.054 "
       id="polyline96" /><polyline
       points="209.194,824.82 221.579,824.82 "
       id="polyline98" /></g><g
     clip-path="url(#clipId0)"
     id="g100"
     transform="translate(-19.824839,-709.63931)"
     style="fill:none;stroke:#2776bb;stroke-width:0.5"><polyline
       points="302.851,824.82 328.808,721.148 "
       id="polyline102" /><polyline
       points="357.441,721.248 383.061,824.82 "
       id="polyline104" /><polyline
       points="315.232,824.82 335.81,726.786 "
       id="polyline106" /><polyline
       points="349.953,726.737 371.053,824.82 "
       id="polyline108" /><path
       d="m 357.441,721.248 a 14.72,14.72 0 0 0 -28.633,-0.1"
       id="path110"
       inkscape:connector-curvature="0" /><path
       d="m 349.953,726.737 a 7.18411,7.18411 0 0 0 -14.143,0.049"
       id="path112"
       inkscape:connector-curvature="0" /><polyline
       points="371.053,824.82 383.061,824.82 "
       id="polyline114" /><polyline
       points="302.851,824.82 315.232,824.82 "
       id="polyline116" /><path
       d="m 545.397,813.448 a 16.2168,16.2168 0 0 0 -9.565,-11.613"
       id="path118"
       inkscape:connector-curvature="0" /><polyline
       points="545.397,813.448 545.397,824.82 "
       id="polyline120" /><polyline
       points="545.397,824.82 533.905,824.82 "
       id="polyline122" /><polyline
       points="533.905,824.82 533.905,813.448 "
       id="polyline124" /><polyline
       points="478.371,801.835 524.34,801.835 "
       id="polyline126" /><polyline
       points="468.614,813.268 533.905,813.448 "
       id="polyline128" /><polyline
       points="392.868,824.801 449.754,824.681 "
       id="polyline130" /><polyline
       points="449.754,824.681 449.742,813.328 "
       id="polyline132" /><polyline
       points="449.742,813.328 404.449,813.334 "
       id="polyline134" /><polyline
       points="609.828,709.899 609.821,824.82 "
       id="polyline136" /><polyline
       points="609.828,709.899 621.312,709.899 "
       id="polyline138" /><polyline
       points="621.312,709.899 621.312,824.82 "
       id="polyline140" /><polyline
       points="621.312,824.82 609.821,824.82 "
       id="polyline142" /><polyline
       points="621.312,709.899 621.312,767.168 "
       id="polyline144" /><polyline
       points="621.312,767.168 621.312,755.921 "
       id="polyline146" /><polyline
       points="621.312,753.712 656.172,709.899 "
       id="polyline148" /><polyline
       points="656.172,709.899 667.286,709.899 "
       id="polyline150" /><polyline
       points="667.286,709.899 630.05,759.152 "
       id="polyline152" /><polyline
       points="621.312,767.168 665.234,824.82 "
       id="polyline154" /><polyline
       points="630.05,759.152 679.123,824.82 "
       id="polyline156" /><polyline
       points="665.234,824.82 679.123,824.82 "
       id="polyline158" /></g><g
     clip-path="url(#clipId0)"
     id="g160"
     transform="translate(-19.824839,-709.63931)"
     style="fill:none;stroke:#2776bb;stroke-width:0.5"><polyline
       points="609.826,753.557 575.091,709.899 "
       id="polyline162" /><polyline
       points="575.091,709.899 563.969,709.899 "
       id="polyline164" /><polyline
       points="563.969,709.899 601.09,758.999 "
       id="polyline166" /><polyline
       points="609.826,767.202 565.79,824.82 "
       id="polyline168" /><polyline
       points="601.09,758.999 551.903,824.82 "
       id="polyline170" /><polyline
       points="565.79,824.82 551.903,824.82 "
       id="polyline172" /><polyline
       points="31.59,709.899 31.5692,754.968 "
       id="polyline174" /><polyline
       points="31.5692,768.424 31.5692,826.065 "
       id="polyline176" /><polyline
       points="798.942,824.82 824.896,721.148 "
       id="polyline178" /><polyline
       points="853.444,719.914 873.747,801.835 "
       id="polyline180" /><polyline
       points="811.327,824.82 831.898,726.786 "
       id="polyline182" /><polyline
       points="846.042,726.737 863.199,805.585 "
       id="polyline184" /><path
       d="m 853.53,721.248 a 14.7199,14.7199 0 0 0 -28.634,-0.1"
       id="path186"
       inkscape:connector-curvature="0" /><path
       d="m 846.042,726.737 a 7.18411,7.18411 0 0 0 -14.144,0.049"
       id="path188"
       inkscape:connector-curvature="0" /><polyline
       points="798.942,824.82 811.327,824.82 "
       id="polyline190" /><polyline
       points="886.326,801.835 906.871,719.814 "
       id="polyline192" /><polyline
       points="935.588,721.282 961.21,824.82 "
       id="polyline194" /><polyline
       points="897.54,805.946 913.958,726.787 "
       id="polyline196" /><polyline
       points="928.102,726.738 949.197,824.82 "
       id="polyline198" /><path
       d="m 935.588,721.282 a 15.0286,15.0286 0 0 0 -28.717,-1.468"
       id="path200"
       inkscape:connector-curvature="0" /><path
       d="m 928.102,726.738 a 7.18411,7.18411 0 0 0 -14.144,0.049"
       id="path202"
       inkscape:connector-curvature="0" /><polyline
       points="949.197,824.82 961.21,824.82 "
       id="polyline204" /><path
       d="m 863.199,805.585 a 17.5651,17.5651 0 0 0 34.341,0.361"
       id="path206"
       inkscape:connector-curvature="0" /><path
       d="m 873.747,801.835 a 6.58331,6.58331 0 0 0 12.579,0"
       id="path208"
       inkscape:connector-curvature="0" /><polyline
       points="975.272,824.82 975.341,709.899 "
       id="polyline210" /><polyline
       points="975.341,709.899 1170.63,710.193 "
       id="polyline212" /><polyline
       points="1074.75,721.391 986.851,721.391 "
       id="polyline214" /><polyline
       points="986.851,721.391 986.828,756.551 "
       id="polyline216" /><polyline
       points="986.828,756.551 1021.3,756.551 "
       id="polyline218" /><polyline
       points="1021.3,756.551 1021.3,768.043 "
       id="polyline220" /><polyline
       points="1021.3,768.043 986.828,768.043 "
       id="polyline222" /><polyline
       points="986.828,768.043 986.785,813.327 "
       id="polyline224" /><polyline
       points="975.272,824.82 1032.16,824.7 "
       id="polyline226" /><polyline
       points="1032.16,824.7 1032.15,813.362 "
       id="polyline228" /><polyline
       points="1032.15,813.331 986.785,813.327 "
       id="polyline230" /><polyline
       points="1074.75,721.391 1074.75,824.82 "
       id="polyline232" /><polyline
       points="1074.75,824.82 1086.24,824.82 "
       id="polyline234" /><polyline
       points="1086.24,721.391 1086.24,824.82 "
       id="polyline236" /><polyline
       points="1132.21,824.82 1143.7,824.82 "
       id="polyline238" /><polyline
       points="1143.7,824.82 1143.7,767.359 "
       id="polyline240" /><polyline
       points="1132.21,755.867 1132.21,824.82 "
       id="polyline242" /><polyline
       points="1132.21,755.867 1166.69,755.867 "
       id="polyline244" /><polyline
       points="1143.7,767.359 1170.42,767.322 "
       id="polyline246" /><path
       d="m 1170.42,767.322 a 28.6662,28.6662 0 0 0 0.21,-57.129"
       id="path248"
       inkscape:connector-curvature="0" /><polyline
       points="1086.24,721.391 1166.69,721.391 "
       id="polyline250" /><path
       d="m 1166.69,755.867 a 17.2433,17.2433 0 1 0 0,-34.476"
       id="path252"
       inkscape:connector-curvature="0" /><circle
       cx="1270.1"
       cy="767.37598"
       r="45.970699"
       id="circle254" /><circle
       cx="1270.1"
       cy="767.37598"
       r="57.443901"
       id="circle256" /><polyline
       points="1339.07,824.82 1350.56,824.82 "
       id="polyline258" /><polyline
       points="1350.56,824.82 1350.56,721.391 "
       id="polyline260" /><polyline
       points="1350.56,721.391 1396.53,721.391 "
       id="polyline262" /><polyline
       points="1396.53,721.391 1396.53,824.82 "
       id="polyline264" /><polyline
       points="1396.53,824.82 1408.02,824.82 "
       id="polyline266" /><polyline
       points="1408.02,824.82 1408.02,709.899 "
       id="polyline268" /><polyline
       points="1408.02,709.899 1339.07,709.899 "
       id="polyline270" /><polyline
       points="1339.07,709.899 1339.07,824.82 "
       id="polyline272" /></g><g
     clip-path="url(#clipId0)"
     id="g274"
     transform="translate(-19.824839,-709.63931)"
     style="fill:none;stroke:#2776bb;stroke-width:0.5"><circle
       cx="1476.96"
       cy="767.37598"
       r="45.970699"
       id="circle276" /><circle
       cx="1476.96"
       cy="767.37598"
       r="57.443901"
       id="circle278" /></g><g
     clip-path="url(#clipId0)"
     id="g280"
     transform="translate(-19.824839,-709.63931)"
     style="fill:none;stroke:#2776bb;stroke-width:0.5"><polyline
       points="1534.44,824.82 1560.39,721.148 "
       id="polyline282" /><polyline
       points="1589.02,721.248 1614.64,824.82 "
       id="polyline284" /><polyline
       points="1546.82,824.82 1567.39,726.786 "
       id="polyline286" /><polyline
       points="1581.54,726.737 1602.63,824.82 "
       id="polyline288" /><path
       d="m 1589.02,721.248 a 14.72,14.72 0 0 0 -28.63,-0.1"
       id="path290"
       inkscape:connector-curvature="0" /><path
       d="m 1581.54,726.737 a 7.18411,7.18411 0 0 0 -14.15,0.049"
       id="path292"
       inkscape:connector-curvature="0" /><polyline
       points="1602.63,824.82 1614.64,824.82 "
       id="polyline294" /><polyline
       points="1534.44,824.82 1546.82,824.82 "
       id="polyline296" /></g><g
     clip-path="url(#clipId0)"
     id="g298"
     transform="translate(-19.824839,-709.63931)"
     style="fill:none;stroke:#2776bb;stroke-width:0.5"><polyline
       points="1626.37,709.899 1637.86,709.899 "
       id="polyline300" /><polyline
       points="1637.86,709.899 1637.89,796.772 "
       id="polyline302" /><polyline
       points="1626.37,709.899 1626.37,824.82 "
       id="polyline304" /><polyline
       points="1626.37,824.82 1635.43,824.804 "
       id="polyline306" /><polyline
       points="1686.68,709.899 1695.32,709.899 "
       id="polyline308" /><polyline
       points="1695.32,709.899 1695.32,824.82 "
       id="polyline310" /><polyline
       points="1695.32,824.82 1683.83,824.82 "
       id="polyline312" /><polyline
       points="1683.82,737.413 1683.83,824.82 "
       id="polyline314" /></g><g
     clip-path="url(#clipId0)"
     id="g316"
     transform="translate(-19.824839,-709.63931)"
     style="fill:none;stroke:#2776bb;stroke-width:0.5"><polyline
       points="1741.29,824.82 1752.78,824.82 "
       id="polyline318" /><polyline
       points="1752.78,824.82 1752.78,721.391 "
       id="polyline320" /><polyline
       points="1741.29,721.391 1741.29,824.82 "
       id="polyline322" /><polyline
       points="1741.29,721.391 1706.82,721.391 "
       id="polyline324" /><polyline
       points="1706.82,721.391 1706.82,709.899 "
       id="polyline326" /><polyline
       points="1706.82,709.899 1787.26,709.899 "
       id="polyline328" /><polyline
       points="1787.26,721.391 1752.78,721.391 "
       id="polyline330" /></g><g
     clip-path="url(#clipId0)"
     id="g332"
     transform="translate(-19.824839,-709.63931)"
     style="fill:none;stroke:#2776bb;stroke-width:0.5"><polyline
       points="1798.75,824.82 1798.75,709.899 "
       id="polyline334" /><polyline
       points="1856.21,709.899 1856.28,722.074 "
       id="polyline336" /><polyline
       points="1856.21,721.391 1810.24,721.391 "
       id="polyline338" /><polyline
       points="1810.24,721.391 1810.24,755.867 "
       id="polyline340" /><polyline
       points="1810.24,755.867 1844.72,755.867 "
       id="polyline342" /><polyline
       points="1844.72,755.867 1844.72,767.359 "
       id="polyline344" /><polyline
       points="1844.72,767.359 1810.24,767.359 "
       id="polyline346" /><polyline
       points="1810.24,767.359 1810.24,813.328 "
       id="polyline348" /><polyline
       points="1798.75,824.82 1856.21,824.82 "
       id="polyline350" /><polyline
       points="1856.21,824.82 1856.21,813.328 "
       id="polyline352" /><polyline
       points="1856.21,813.328 1810.24,813.328 "
       id="polyline354" /></g><g
     clip-path="url(#clipId0)"
     id="g356"
     transform="translate(-19.824839,-709.63931)"
     style="fill:none;stroke:#2776bb;stroke-width:0.5"><polyline
       points="1867.71,709.899 1879.2,709.899 "
       id="polyline358" /><polyline
       points="1879.2,709.899 1879.2,755.867 "
       id="polyline360" /><polyline
       points="1879.2,755.867 1925.17,755.867 "
       id="polyline362" /><polyline
       points="1925.17,755.867 1925.17,709.899 "
       id="polyline364" /><polyline
       points="1925.17,709.899 1936.66,709.899 "
       id="polyline366" /><polyline
       points="1936.66,709.899 1936.66,824.82 "
       id="polyline368" /><polyline
       points="1936.66,824.82 1925.17,824.82 "
       id="polyline370" /><polyline
       points="1925.17,824.82 1925.17,767.359 "
       id="polyline372" /><polyline
       points="1925.17,767.359 1879.2,767.359 "
       id="polyline374" /><polyline
       points="1879.2,767.359 1879.2,824.82 "
       id="polyline376" /><polyline
       points="1879.2,824.82 1867.71,824.82 "
       id="polyline378" /><polyline
       points="1867.71,824.82 1867.71,709.899 "
       id="polyline380" /><polyline
       points="1947.71,824.82 1973.67,721.148 "
       id="polyline382" /><polyline
       points="2002.3,721.248 2027.92,824.82 "
       id="polyline384" /><polyline
       points="1960.1,824.82 1967.33,790.343 "
       id="polyline386" /></g><g
     clip-path="url(#clipId0)"
     id="g388"
     transform="translate(-19.824839,-709.63931)"
     style="fill:none;stroke:#2776bb;stroke-width:0.5"><polyline
       points="1994.81,726.737 2006.02,778.851 "
       id="polyline390" /><path
       d="m 2002.3,721.248 a 14.72,14.72 0 0 0 -28.63,-0.1"
       id="path392"
       inkscape:connector-curvature="0" /><path
       d="m 1994.81,726.737 a 7.18411,7.18411 0 0 0 -14.14,0.049"
       id="path394"
       inkscape:connector-curvature="0" /><polyline
       points="2015.91,824.82 2027.92,824.82 "
       id="polyline396" /><polyline
       points="1947.71,824.82 1960.1,824.82 "
       id="polyline398" /><polyline
       points="1967.33,790.343 2008.49,790.343 "
       id="polyline400" /><polyline
       points="1969.74,778.851 2006.02,778.851 "
       id="polyline402" /><polyline
       points="1980.67,726.786 1969.74,778.851 "
       id="polyline404" /><polyline
       points="2008.49,790.343 2015.91,824.82 "
       id="polyline406" /><polyline
       points="1798.75,709.899 1856.21,709.899 "
       id="polyline408" /><polyline
       points="1787.26,709.899 1787.26,721.391 "
       id="polyline410" /><polyline
       points="1681.78,715.148 1640.42,796.756 "
       id="polyline412" /><polyline
       points="1639.72,821.106 1681.59,737.365 "
       id="polyline414" /><path
       d="m 1637.89,796.772 a 1.39894,1.39894 0 0 0 2.53,-0.016"
       id="path416"
       inkscape:connector-curvature="0" /><path
       d="m 1683.82,737.413 a 1.24773,1.24773 0 0 0 -2.23,-0.048"
       id="path418"
       inkscape:connector-curvature="0" /><path
       d="m 1635.43,824.804 a 6.92886,6.92886 0 0 0 4.29,-3.698"
       id="path420"
       inkscape:connector-curvature="0" /><path
       d="m 1686.68,709.899 a 10.2196,10.2196 0 0 0 -4.9,5.249"
       id="path422"
       inkscape:connector-curvature="0" /></g><path
     style="fill:#ffffff"
     d=""
     id="path3571"
     inkscape:connector-curvature="0" /><path
     style="fill:#ffffff"
     d=""
     id="path3585"
     inkscape:connector-curvature="0" /><path
     style="fill:#ffffff"
     d="m 0.58772724,58.42266 0,-57.7283325 5.41203116,0 5.4120316,0 0,22.4899965 c 0,17.839567 0.06217,22.486922 0.300668,22.475133 0.165368,-0.0082 8.039873,-9.761947 17.498901,-21.675055 C 38.670387,12.071295 46.734313,1.9528703 47.131195,1.4990139 l 0.721604,-0.8251936 4.984712,0.0703873 4.984712,0.0703873 L 38.935254,25.784379 20.048282,50.754163 28.339918,61.864587 c 4.560399,6.110731 15.530355,20.797959 24.377682,32.638281 l 16.086048,21.527852 -6.356886,0.0641 c -3.718683,0.0375 -6.468931,-0.0297 -6.626868,-0.16199 C 55.671402,115.80848 45.754134,102.82449 33.781518,87.079538 21.808903,71.334585 11.877826,58.445669 11.712458,58.437506 c -0.238947,-0.0118 -0.300668,5.910426 -0.300668,28.84932 l 0,28.864164 -5.4120316,0 -5.41203116,0 0,-57.72833 z"
     id="path3630"
     inkscape:connector-curvature="0" /><path
     style="fill:#ffffff"
     d="m 120.01321,114.42786 c -7.72015,-0.87061 -17.04011,-4.12917 -23.517014,-8.2223 C 84.073555,98.354952 75.135307,86.264787 71.413206,72.277481 70.168298,67.599235 69.8379,65.114968 69.695703,59.36356 69.498873,51.402385 70.183089,46.616316 72.527946,39.552105 79.477283,18.616245 98.438922,3.3333301 120.42467,0.94776626 123.834,0.57783694 130.11264,0.63793485 133.71399,1.074969 c 3.61796,0.4390489 9.31833,1.8279404 12.77372,3.1123084 5.08634,1.8905907 10.89067,5.1630378 15.49881,8.7381406 2.5535,1.981059 7.1306,6.515966 9.14049,9.056232 6.21477,7.854724 10.25299,17.04384 11.9446,27.180423 0.6286,3.766757 0.6286,13.311208 0,17.077965 -1.47963,8.866305 -4.42,16.298734 -9.32556,23.572403 -9.23218,13.688909 -24.45243,22.855649 -40.91488,24.641899 -2.74858,0.29824 -10.07269,0.28311 -12.81796,-0.0265 z m 13.34968,-10.93675 c 18.41872,-2.65284 33.6058,-16.388197 38.12975,-34.484922 1.7873,-7.149589 1.7873,-15.460675 0,-22.610264 -4.53049,-18.122915 -19.6335,-31.746921 -38.25922,-34.512574 -3.39498,-0.504105 -9.79153,-0.505367 -13.24393,-0.0026 -19.44162,2.831183 -34.963726,17.551677 -38.804236,36.800266 -0.814384,4.081682 -1.08653,8.520134 -0.758416,12.36907 0.990707,11.621473 5.457802,21.360697 13.474585,29.377479 10.463737,10.463737 24.727477,15.185687 39.461467,13.063557 z"
     id="path3632"
     inkscape:connector-curvature="0" /><path
     style="fill:#ffffff"
     d="m 189.88855,114.74566 c 0,-0.11146 5.89664,-23.73495 13.10364,-52.496639 C 213.57981,19.99601 216.247,9.6548283 216.88307,8.3915032 c 1.69105,-3.3586163 5.55006,-6.3878498 9.39124,-7.3719163 2.06604,-0.52929293 5.98501,-0.33450578 8.07901,0.4015563 3.88734,1.3664342 7.21681,4.6202475 8.64189,8.4455072 0.4599,1.2344656 26.02926,104.2066796 26.02926,104.8242796 0,0.18886 -1.62426,0.24749 -5.58789,0.20169 l -5.5879,-0.0646 -10.61526,-49.360684 c -5.83839,-27.148377 -10.75328,-49.693895 -10.92197,-50.101151 -1.97817,-4.775711 -8.59096,-6.0369461 -12.2191,-2.330506 -0.54284,0.554562 -1.20042,1.495378 -1.46127,2.090702 -0.26086,0.595323 -5.08997,23.109373 -10.73137,50.031221 -5.64139,26.921848 -10.31127,49.138238 -10.3775,49.369748 -0.11036,0.38581 -0.60077,0.42094 -5.87704,0.42094 -3.16614,0 -5.75662,-0.0912 -5.75662,-0.20266 z"
     id="path3634"
     inkscape:connector-curvature="0" /><path
     style="fill:#ffffff"
     d="m 283.46297,114.89246 c 0.004,-0.0354 5.89689,-23.60455 13.09635,-52.375834 14.68388,-58.68131 13.47283,-54.4795661 16.61198,-57.6357227 2.72718,-2.7419669 6.21832,-4.19012764 10.08415,-4.18302043 4.00294,0.007359 7.27869,1.36323713 10.13736,4.19599323 3.1533,3.124717 2.01779,-0.8496723 16.46175,57.6178739 7.04301,28.509378 12.85598,51.97053 12.9177,52.1359 0.0878,0.23519 -1.11873,0.30067 -5.54,0.30067 l -5.65223,0 -0.14475,-0.57677 c -0.0796,-0.31721 -4.85333,-22.479482 -10.60825,-49.249479 -5.75491,-26.769996 -10.63199,-49.123789 -10.83794,-49.675096 -0.54411,-1.456506 -2.08474,-3.078929 -3.65169,-3.845569 -3.49218,-1.7085666 -8.21442,-0.214491 -9.88323,3.12697 -0.3926,0.7861 -3.55901,15.427632 -10.94349,50.602917 l -10.39105,49.496757 -5.83154,0.0644 c -3.20734,0.0354 -5.82865,0.0354 -5.82512,0 z"
     id="path3636"
     inkscape:connector-curvature="0" /><path
     style="fill:#ffffff"
     d="m 373.41654,57.94159 0,-56.7661931 28.3831,0 28.38309,0 0,5.4108167 0,5.4108164 -22.91093,0.06135 -22.91093,0.06135 0,17.559034 0,17.559035 17.1381,0.06173 17.1381,0.06174 0,5.288558 0,5.288557 -17.1381,0.06174 -17.1381,0.06174 0,22.971065 0,22.971067 22.55013,0.0614 22.55013,0.0614 0,5.29053 0,5.29053 -28.02229,0 -28.0223,0 0,-56.76619 z"
     id="path3638"
     inkscape:connector-curvature="0" /><path
     style="fill:#ffffff"
     d="m 437.63931,109.1679 c 0,-6.39165 0.14867,-7.25168 1.74502,-10.094873 1.14071,-2.031657 4.04464,-4.766491 6.19045,-5.829989 l 1.80184,-0.893016 10.26471,-41.050055 C 469.17736,5.1657404 468.3445,7.9703488 471.4228,4.8920463 c 2.78633,-2.7863297 6.13953,-4.19262908 9.99383,-4.19130855 4.11587,0.00141 7.3539,1.33205835 10.24551,4.21032625 3.06347,3.0493382 2.23634,0.2628659 13.77183,46.394953 l 10.26623,41.056106 1.29699,0.709265 c 3.7395,2.044956 6.21961,4.906155 7.63666,8.810102 0.52791,1.45436 0.5601,1.87419 0.5601,7.30494 l 0,5.76189 -5.41203,0 -5.41203,0 0,-5.77283 0,-5.77284 -32.71273,0 c -17.99199,0 -32.7939,-0.0271 -32.89312,-0.0601 -0.0992,-0.0331 -0.20938,2.5647 -0.24481,5.77283 l -0.0644,5.83297 -5.40775,0 -5.40776,0 0,-5.78042 z M 504.7485,92.088077 c 0,-0.781468 -16.08728,-75.530336 -16.49452,-76.641102 -0.53341,-1.454892 -2.07271,-3.076236 -3.65882,-3.853835 -1.15742,-0.567433 -1.67845,-0.673867 -3.2988,-0.673867 -1.62035,0 -2.14137,0.106434 -3.2988,0.673867 -1.7132,0.839907 -3.18538,2.474336 -3.69793,4.105478 -0.5168,1.644638 -16.16772,76.468715 -16.04323,76.699571 0.0535,0.09922 10.53612,0.180401 23.29469,0.180401 23.1859,0 23.19741,-2.43e-4 23.19741,-0.490513 z"
     id="path3640"
     inkscape:connector-curvature="0" /><path
     style="fill:#ffffff"
     d="m 532.89106,114.82285 c 0,-0.0907 43.61037,-58.570047 48.26454,-64.720351 l 0.5625,-0.74332 L 568.45695,31.82186 C 561.16332,22.176333 552.88415,11.226741 550.0588,7.4894333 l -5.137,-6.7951058 5.12241,0 5.12241,0 17.24532,21.6844485 17.24531,21.68445 0,6.684438 0,6.684438 -21.5558,28.216904 c -11.85569,15.519304 -21.77857,28.460444 -22.05085,28.758114 -0.48939,0.535 -0.56757,0.5412 -6.8273,0.5412 -3.48273,0 -6.33224,-0.0565 -6.33224,-0.12547 z"
     id="path3642"
     inkscape:connector-curvature="0" /><path
     style="fill:#ffffff"
     d="m 590.37886,57.821323 0,-57.1269955 5.41203,0 5.41203,0 0,57.1269955 0,57.126997 -5.41203,0 -5.41203,0 0,-57.126997 z"
     id="path3644"
     inkscape:connector-curvature="0" /><path
     style="fill:#ffffff"
     d="m 644.55962,113.44498 c -0.65101,-0.82684 -10.51023,-13.751712 -21.90937,-28.721936 l -20.72573,-27.218592 0,-6.701143 0,-6.701146 17.21817,-21.643784 17.21817,-21.64378414 5.16494,-0.0648619 5.16494,-0.064862 -6.95623,9.20518133 c -3.82593,5.0628497 -12.1117,16.0243407 -18.41283,24.3588687 -6.30113,8.334528 -11.45509,15.207807 -11.45326,15.273954 0.002,0.06615 10.93007,14.732752 24.28497,32.592455 13.3549,17.859703 24.28505,32.55337 24.28922,32.65259 0.004,0.0992 -2.85148,0.1804 -6.34589,0.1804 l -6.35346,0 -1.18364,-1.50334 z"
     id="path3646"
     inkscape:connector-curvature="0" /><path
     style="fill:#ffffff"
     d="m 779.67968,114.70475 c 0,-0.13396 5.85147,-23.649233 13.00327,-52.256164 10.73738,-42.949084 13.1535,-52.326962 13.86538,-53.8166128 1.13524,-2.3755844 4.03484,-5.3212978 6.33344,-6.4341744 4.04223,-1.95705358 8.65986,-2.0317438 12.61977,-0.2041249 3.26749,1.5080449 6.50419,5.1225455 7.45218,8.3220421 0.098,0.330735 0.32556,0.926059 0.50569,1.322941 0.18013,0.396882 4.7689,18.689548 10.19726,40.650368 5.42836,21.960819 10.07277,40.365179 10.32091,40.898575 0.67562,1.452276 1.63279,2.467624 3.00521,3.187862 1.05543,0.553886 1.52375,0.646341 3.27602,0.646759 1.64516,4.81e-4 2.23881,-0.102853 3.03902,-0.528536 1.25383,-0.666989 2.37791,-1.78384 2.97668,-2.957524 0.25565,-0.501118 5.13252,-19.5119 10.8375,-42.246185 7.90619,-31.506134 10.55316,-41.7065215 11.13169,-42.8972165 1.05671,-2.1748683 4.05035,-5.1666732 6.19155,-6.1877582 2.59808,-1.23896383 4.29446,-1.57615158 7.3158,-1.4541562 4.26133,0.17206401 7.33227,1.5236794 10.17158,4.4768232 2.69427,2.802298 1.81064,-0.3472432 16.05022,57.2079767 7.0758,28.599814 12.86509,52.117085 12.86509,52.260605 0,0.18193 -1.69267,0.24138 -5.59027,0.19637 l -5.59027,-0.0646 -10.62062,-49.429883 C 907.32888,10.907936 908.14515,14.1851 905.84639,12.441473 c -1.43057,-1.085102 -2.89589,-1.531074 -4.93721,-1.502648 -2.81345,0.03918 -5.36855,1.69364 -6.46717,4.187586 -0.26225,0.595323 -4.22149,19.15859 -8.79831,41.251704 -4.57682,22.093114 -8.53098,40.801695 -8.78702,41.574624 -1.30554,3.941141 -4.71622,7.880511 -8.41969,9.724831 -2.90548,1.44692 -4.6302,1.84813 -7.93764,1.84647 -3.14811,-0.002 -5.2092,-0.50483 -7.95829,-1.94317 -3.80915,-1.99296 -7.05065,-5.85114 -8.36052,-9.951051 -0.14793,-0.463029 -4.21668,-18.990476 -9.04168,-41.172104 -4.825,-22.181628 -8.93866,-40.727382 -9.14148,-41.212786 -0.65736,-1.573294 -1.76101,-2.705816 -3.44446,-3.534578 -1.38311,-0.680903 -1.84325,-0.786248 -3.41406,-0.781625 -3.00016,0.0088 -5.52494,1.532484 -6.70722,4.04768 -0.27705,0.589392 -4.7316,21.293649 -10.61797,49.351102 -5.57737,26.584653 -10.25037,48.849872 -10.38443,49.478272 l -0.24376,1.14254 -5.7529,0 c -3.72264,0 -5.7529,-0.086 -5.7529,-0.24357 z"
     id="path3648"
     inkscape:connector-curvature="0" /><path
     style="fill:#ffffff"
     d="m 955.75109,57.856975 0,-57.1626475 65.36531,0.0319885 c 35.9509,0.0175936 80.3566,0.1039007 98.6794,0.19179351 l 33.314,0.15980504 2.4054,0.651021 c 9.876,2.6729927 17.6733,10.5890085 20.2302,20.5381865 0.7574,2.947081 1.0218,7.709144 0.5916,10.6518 -1.5771,10.785924 -9.0419,19.743963 -19.2254,23.071165 -3.8298,1.251297 -4.2976,1.286105 -19.396,1.443119 l -14.1915,0.147582 -0.061,28.683766 -0.061,28.683766 -5.2907,0 -5.2908,0 0,-34.14623 0,-34.146232 18.7015,-0.07738 c 18.5864,-0.0769 18.7125,-0.08071 20.4644,-0.617123 7.8499,-2.403529 12.7896,-8.971002 12.7896,-17.0042 0,-8.140873 -5.2779,-14.954802 -13.1414,-16.965944 -1.8158,-0.464386 -2.8156,-0.47529 -43.608,-0.475559 l -41.7496,-2.75e-4 -0.061,51.71647 -0.061,51.716471 -5.4114,0 -5.4115,0 0,-51.713688 0,-51.713687 -44.1611,-0.06141 c -24.28865,-0.03378 -44.25975,-4.68e-4 -44.38026,0.07402 -0.1295,0.08004 -0.19388,7.408861 -0.15741,17.919836 l 0.0617,17.784409 17.25837,0.06173 17.25841,0.06173 0,5.288579 0,5.288579 -17.25841,0.06173 -17.25837,0.06173 0,22.971065 0,22.971067 22.6704,0.0614 22.67038,0.0614 0,5.29054 0,5.29053 -26.15813,0.001 c -14.38699,7.2e-4 -27.05114,0.0709 -28.14256,0.15592 l -1.98442,0.15447 0,-57.162645 z"
     id="path3650"
     inkscape:connector-curvature="0" /><path
     style="fill:#ffffff"
     d="m 1247.0386,114.67772 c -20.2947,-1.01472 -38.8685,-13.2779 -47.8616,-31.600251 -2.8115,-5.728056 -4.4754,-11.028173 -5.4369,-17.3185 -0.6061,-3.965251 -0.6155,-12.106618 -0.018,-15.995559 1.9098,-12.439364 7.2154,-23.171128 15.742,-31.841692 8.2134,-8.3521876 18.2546,-13.8454483 29.4678,-16.1211377 8.2296,-1.67017637 17.4827,-1.42529706 25.6722,0.6794068 16.8399,4.327862 31.2187,16.6818299 38.1215,32.7534109 3.1285,7.283738 4.5448,14.295849 4.5382,22.467658 -0,4.968855 -0.198,7.016999 -1.0818,11.425399 -5.1707,25.789733 -27.6546,44.758035 -54.0916,45.633865 -1.1245,0.0373 -3.3976,8e-5 -5.0513,-0.0826 z m 6.9755,-10.79723 c 19.0344,-1.64909 35.0578,-14.555469 40.5464,-32.659047 3.3782,-11.142372 2.466,-23.055633 -2.5638,-33.484769 -6.7489,-13.993319 -19.7509,-23.555549 -35.1352,-25.8399 -3.2922,-0.488845 -9.7512,-0.496019 -13.0115,-0.01445 -8.786,1.297738 -16.5218,4.724864 -23.1499,10.255853 -19.3682,16.16235 -22.3203,44.357257 -6.7331,64.306781 1.7243,2.20686 5.5788,6.076282 7.6952,7.724933 6.8728,5.353757 15.8685,8.933592 24.3214,9.678642 3.3822,0.29811 4.8893,0.30411 8.0305,0.032 z"
     id="path3652"
     inkscape:connector-curvature="0" /><path
     style="fill:#ffffff"
     d="m 1319.6801,57.821323 0,-57.1269955 34.0357,0 34.0356,0 0,57.1269955 0,57.126997 -5.2917,0 -5.2918,0 0,-51.714966 c 0,-34.315469 -0.081,-51.715377 -0.2405,-51.716191 -12.0911,-0.06169 -46.2855,0.03641 -46.4422,0.133235 -0.1339,0.08276 -0.2215,20.538699 -0.2215,51.71742 l 0,51.580502 -5.2918,0 -5.2918,0 0,-57.126997 z"
     id="path3654"
     inkscape:connector-curvature="0" /><path
     style="fill:#ffffff"
     d="m 1453.8985,114.67772 c -20.2947,-1.01472 -38.8685,-13.2779 -47.8617,-31.600251 -2.8115,-5.728056 -4.4754,-11.028173 -5.4369,-17.3185 -0.6061,-3.965251 -0.6155,-12.106618 -0.018,-15.995559 1.9098,-12.439364 7.2154,-23.171128 15.7419,-31.841692 8.2135,-8.3521876 18.2546,-13.8454483 29.4679,-16.1211377 8.2296,-1.67017637 17.4826,-1.42529706 25.6722,0.6794068 16.8399,4.327862 31.2186,16.6818299 38.1215,32.7534109 3.1284,7.283738 4.5448,14.295849 4.5381,22.467658 -0,4.968855 -0.1979,7.016999 -1.0818,11.425399 -5.1706,25.789733 -27.6545,44.758035 -54.0916,45.633865 -1.1245,0.0373 -3.3975,8e-5 -5.0512,-0.0826 z m 6.9755,-10.79723 c 19.0344,-1.64909 35.0577,-14.555469 40.5464,-32.659047 3.3782,-11.142372 2.466,-23.055633 -2.5639,-33.484769 -6.7488,-13.993319 -19.7508,-23.555549 -35.1352,-25.8399 -3.2921,-0.488845 -9.7512,-0.496019 -13.0115,-0.01445 -8.7859,1.297738 -16.5218,4.724864 -23.1499,10.255853 -19.3682,16.16235 -22.3203,44.357257 -6.7331,64.306781 1.7243,2.20686 5.5789,6.076282 7.6953,7.724933 6.8727,5.353757 15.8685,8.933592 24.3213,9.678642 3.3822,0.29811 4.8894,0.30411 8.0306,0.032 z"
     id="path3656"
     inkscape:connector-curvature="0" /><path
     style="fill:#ffffff"
     d="m 1528.1422,62.599519 c 9.9565,-39.819544 13.2639,-52.7008332 13.8188,-53.8196427 1.9404,-3.9119164 5.2684,-6.624128 9.4647,-7.7134108 1.8024,-0.46785832 4.8456,-0.47249646 6.8056,-0.010372 4.3003,1.0139063 8.3157,4.4647508 9.9142,8.5203656 0.272,0.6899012 6.2371,24.4913802 13.2559,52.8921782 7.0189,28.400795 12.8156,51.827233 12.8817,52.058743 0.1119,0.39236 -0.2635,0.42094 -5.5288,0.42094 l -5.6488,0 -0.2681,-1.26281 c -7.5638,-35.62542 -21.1248,-97.986168 -21.4678,-98.720851 -1.0032,-2.148539 -3.3874,-3.78711 -5.9525,-4.090913 -1.7092,-0.202427 -3.9509,0.443712 -5.4163,1.561166 -2.3034,1.756465 -1.4491,-1.743895 -12.9113,52.903121 l -10.4057,49.610287 -5.8154,0 -5.8155,0 13.0893,-52.348801 z"
     id="path3658"
     inkscape:connector-curvature="0" /><path
     style="fill:#ffffff"
     d="m 1606.8786,57.821985 0,-57.1276575 5.412,0 5.412,0 0,43.4028785 0,43.402876 0.5346,0.374443 c 0.7606,0.532702 1.7069,0.46332 2.2745,-0.166763 0.2682,-0.297662 9.9399,-19.212711 21.4927,-42.033442 11.5528,-22.820732 21.2833,-41.8628047 21.6234,-42.3157183 0.3401,-0.4529137 1.1422,-1.2376583 1.7824,-1.7438768 l 1.1642,-0.9203974 4.308,0 4.308,0 0,57.1269955 0,57.126997 -5.4113,0 -5.4114,0 -0.061,-43.828234 -0.061,-43.828233 -0.6615,-0.370021 c -1.4839,-0.830105 -0.3081,-2.995382 -23.2717,42.85461 -13.2347,26.424976 -21.5603,42.786718 -22.0089,43.252968 -1.4751,1.53302 -1.7456,1.60342 -6.7951,1.76869 l -4.6303,0.15154 0,-57.127655 z"
     id="path3660"
     inkscape:connector-curvature="0" /><path
     style="fill:#ffffff"
     d="m 1721.8542,63.233354 0,-51.714964 -17.1983,0 -17.1982,0 0,-5.4120313 0,-5.4120312 39.8085,0 39.8085,0 0,5.4151208 0,5.4151207 -17.1381,-0.0094 -17.1381,-0.0094 -0.061,51.721278 -0.061,51.72128 -5.4114,0 -5.4115,0 0,-51.714966 z"
     id="path3662"
     inkscape:connector-curvature="0" /><path
     style="fill:#ffffff"
     d="m 1779.342,57.821323 0,-57.1269955 28.3831,0 28.3831,0 0,5.4143935 0,5.414393 -22.911,-0.0072 -22.9109,-0.0072 -0.062,17.56385 -0.062,17.56385 17.1998,0 17.1998,0 0,5.412031 0,5.412031 -17.1982,0 -17.1983,0 0,23.331868 0,23.331871 22.9711,0 22.9711,0 0,5.41203 0,5.41203 -28.3831,0 -28.3831,0 0,-57.126997 z"
     id="path3664"
     inkscape:connector-curvature="0" /><path
     style="fill:#ffffff"
     d="m 1848.1349,57.821323 0,-57.1269955 5.4108,0 5.4108,0 0.061,22.9109315 0.061,22.910932 23.2718,0.06133 23.2717,0.06133 0,-22.972262 0,-22.9722625 5.412,0 5.4121,0 0,57.1269955 0,57.126997 -5.4121,0 -5.412,0 0,-28.7439 0,-28.743899 -23.3319,0 -23.3318,0 0,28.743899 0,28.7439 -5.4121,0 -5.412,0 0,-57.126997 z"
     id="path3666"
     inkscape:connector-curvature="0" /><path
     style="fill:#ffffff"
     d="m 1928.4735,114.57843 c 0,-0.89048 26.0714,-104.270004 26.5803,-105.3976436 1.6202,-3.5897058 4.4496,-6.2432761 8.177,-7.6687604 2.2383,-0.85603728 5.9764,-1.06489078 8.2984,-0.4636497 4.6301,1.1988793 8.5848,4.7459593 10.0824,9.0431247 0.3722,1.068193 25.9978,104.294069 25.9978,104.725429 0,0.0723 -2.5233,0.13139 -5.6073,0.13139 l -5.6073,0 -3.7134,-17.258367 -3.7134,-17.258366 -20.8615,-0.06146 -20.8615,-0.06146 -0.1275,0.542531 c -0.2646,1.125382 -7.0983,33.810165 -7.0983,33.950375 0,0.0807 -2.5978,0.14675 -5.7729,0.14675 -5.034,0 -5.7728,-0.0473 -5.7728,-0.36989 z m 57.9689,-45.502295 c 0,-1.104807 -11.3895,-53.226917 -11.834,-54.156175 -2.1203,-4.43278 -8.5195,-5.4017722 -12.0905,-1.830776 -0.5015,0.501499 -1.1095,1.358653 -1.3511,1.904787 -0.3811,0.861503 -11.5262,53.216828 -11.5262,54.145494 0,0.300334 2.5108,0.347792 18.4009,0.347792 17.197,0 18.4009,-0.0269 18.4009,-0.411122 z"
     id="path3668"
     inkscape:connector-curvature="0" /></svg>